<?xml version="1.0" encoding="UTF-8"?>
<svg viewBox="0 0 24 19" version="1.1" xmlns="http://www.w3.org/2000/svg">
    <title>credit-card</title>
    <g id="Mobile" stroke="none" stroke-width="1" fill="none" fill-rule="evenodd">
        <g id="1-10-Lockspread-Theming" transform="translate(-23.000000, -578.000000)" fill="#FFFFFF"
           fill-rule="nonzero">
            <g id="Group-59" transform="translate(14.000000, 444.000000)">
                <g id="Group-9-Copy-4" transform="translate(0.000000, 93.000000)">
                    <g id="Group-6" transform="translate(0.500000, 29.500000)">
                        <g id="credit-card" transform="translate(9.000000, 12.000000)">
                            <polygon id="Path" points="23.3333333 8 0 8 0 4 23.3333333 4"></polygon>
                            <path
                              d="M20.7407407,0 C22.1707176,0 23.3333333,1.15111607 23.3333333,2.57142857 L23.3333333,3.85714286 L0,3.85714286 L0,2.57142857 C0,1.15111607 1.16059028,0 2.59259259,0 L20.7407407,0 Z M23.3333333,15.4285714 C23.3333333,16.846875 22.1707176,18 20.7407407,18 L2.59259259,18 C1.16059028,18 0,16.846875 0,15.4285714 L0,7.71428571 L23.3333333,7.71428571 L23.3333333,15.4285714 Z M4.53703704,12.8571429 C4.18055556,12.8571429 3.88888889,13.1464286 3.88888889,13.5 C3.88888889,13.8535714 4.18055556,14.1428571 4.53703704,14.1428571 L7.12962963,14.1428571 C7.48611111,14.1428571 7.77777778,13.8535714 7.77777778,13.5 C7.77777778,13.1464286 7.48611111,12.8571429 7.12962963,12.8571429 L4.53703704,12.8571429 Z M9.72222222,14.1428571 L14.9074074,14.1428571 C15.2638889,14.1428571 15.5555556,13.8535714 15.5555556,13.5 C15.5555556,13.1464286 15.2638889,12.8571429 14.9074074,12.8571429 L9.72222222,12.8571429 C9.36574074,12.8571429 9.07407407,13.1464286 9.07407407,13.5 C9.07407407,13.8535714 9.36574074,14.1428571 9.72222222,14.1428571 Z"
                              id="Shape" opacity="0.4"></path>
                        </g>
                    </g>
                </g>
            </g>
        </g>
    </g>
</svg>
