<?xml version="1.0" encoding="UTF-8"?>
<svg viewBox="0 0 20 16" version="1.1" xmlns="http://www.w3.org/2000/svg">
    <title>rectangle-history-circle-plus</title>
    <g id="Mobile" stroke="none" stroke-width="1" fill="none" fill-rule="evenodd">
        <g id="1-2-Lockspread-Theming" transform="translate(-18.000000, -435.000000)" fill="#FFFFFF"
           fill-rule="nonzero">
            <g id="Group-13" transform="translate(-0.000000, 132.000000)">
                <g id="Group-4" transform="translate(0.000000, 180.500000)">
                    <g id="Group-3" transform="translate(16.000000, 41.500000)">
                        <g id="Group-Copy-4" transform="translate(2.000000, 78.000000)">
                            <g id="rectangle-history-circle-plus" transform="translate(0.000000, 3.000000)">
                                <path
                                  d="M20,11.5 C20,13.984375 17.984375,16 15.5,16 C13.015625,16 11,13.984375 11,11.5 C11,9.015625 13.015625,7 15.5,7 C17.984375,7 20,9.015625 20,11.5 Z M15,9.471875 L15,10.971875 L13.5,10.971875 C13.225,10.971875 13,11.225 13,11.471875 C13,11.775 13.225,11.971875 13.5,11.971875 L15,11.971875 L15,13.471875 C15,13.775 15.225,13.971875 15.5,13.971875 C15.775,13.971875 16,13.775 16,13.471875 L16,11.971875 L17.5,11.971875 C17.775,11.971875 18,11.775 18,11.471875 C18,11.225 17.775,10.971875 17.5,10.971875 L16,10.971875 L16,9.471875 C16,9.225 15.775,8.971875 15.5,8.971875 C15.225,8.971875 15,9.225 15,9.471875 Z"
                                  id="Shape"></path>
                                <path
                                  d="M2,16 C0.8953125,16 0,15.103125 0,14 L0,7 C0,5.896875 0.8953125,5 2,5 L14,5 C14.74375,5 15.390625,5.403125 15.734375,6.00625 C15.65625,6.003125 15.578125,6 15.5,6 C12.4625,6 10,8.4625 10,11.5 C10,13.359375 10.921875,15.003125 12.3375,16 L2,16 Z M13.75,4 L2.25,4 C1.8359375,4 1.5,3.665625 1.5,3.25 C1.5,2.8359375 1.8359375,2.5 2.25,2.5 L13.75,2.5 C14.165625,2.5 14.5,2.8359375 14.5,3.25 C14.5,3.665625 14.165625,4 13.75,4 Z M12.25,1.5 L3.75,1.5 C3.334375,1.5 3,1.1640625 3,0.75 C3,0.3359375 3.334375,0 3.75,0 L12.25,0 C12.665625,0 13,0.3359375 13,0.75 C13,1.1640625 12.665625,1.5 12.25,1.5 Z"
                                  id="Shape" opacity="0.4"></path>
                            </g>
                        </g>
                    </g>
                </g>
            </g>
        </g>
    </g>
</svg>
