<?xml version="1.0" encoding="UTF-8"?>
<svg viewBox="0 0 35 27" version="1.1" xmlns="http://www.w3.org/2000/svg"
>
  <title>credit-card</title>
  <g id="Mobile" stroke="none" stroke-width="1" fill="none" fill-rule="evenodd">
    <g id="1-10-Lockspread-Theming" transform="translate(-208.000000, -308.000000)" fill="#003370" fill-rule="nonzero">
      <g id="Group-39" transform="translate(-161.000000, 174.000000)">
        <g id="Group-58" transform="translate(0.000000, 122.000000)">
          <g id="Group-17-Copy-2" transform="translate(356.000000, 0.000000)">
            <g id="credit-card" transform="translate(13.000000, 12.000000)">
              <polygon id="Path" points="35 12 0 12 0 6 35 6"></polygon>
              <path
                d="M31.1111111,0 C33.2560764,0 35,1.72667411 35,3.85714286 L35,5.78571429 L0,5.78571429 L0,3.85714286 C0,1.72667411 1.74088542,0 3.88888889,0 L31.1111111,0 Z M35,23.1428571 C35,25.2703125 33.2560764,27 31.1111111,27 L3.88888889,27 C1.74088542,27 0,25.2703125 0,23.1428571 L0,11.5714286 L35,11.5714286 L35,23.1428571 Z M6.80555556,19.2857143 C6.27083333,19.2857143 5.83333333,19.7196429 5.83333333,20.25 C5.83333333,20.7803571 6.27083333,21.2142857 6.80555556,21.2142857 L10.6944444,21.2142857 C11.2291667,21.2142857 11.6666667,20.7803571 11.6666667,20.25 C11.6666667,19.7196429 11.2291667,19.2857143 10.6944444,19.2857143 L6.80555556,19.2857143 Z M14.5833333,21.2142857 L22.3611111,21.2142857 C22.8958333,21.2142857 23.3333333,20.7803571 23.3333333,20.25 C23.3333333,19.7196429 22.8958333,19.2857143 22.3611111,19.2857143 L14.5833333,19.2857143 C14.0486111,19.2857143 13.6111111,19.7196429 13.6111111,20.25 C13.6111111,20.7803571 14.0486111,21.2142857 14.5833333,21.2142857 Z"
                id="Shape" opacity="0.4"></path>
            </g>
          </g>
        </g>
      </g>
    </g>
  </g>
</svg>
