<?xml version="1.0" encoding="UTF-8"?>
<svg viewBox="0 0 21 16" version="1.1" xmlns="http://www.w3.org/2000/svg">
    <title>money-bill-transfer</title>
    <g id="Mobile" stroke="none" stroke-width="1" fill="none" fill-rule="evenodd">
        <g id="1-2-Lockspread-Theming" transform="translate(-17.000000, -356.000000)" fill="#FFFFFF"
           fill-rule="nonzero">
            <g id="Group-13" transform="translate(-0.000000, 132.000000)">
                <g id="Group-4" transform="translate(0.000000, 180.500000)">
                    <g id="Group-3" transform="translate(16.000000, 41.500000)">
                        <g id="Group-Copy-2" transform="translate(1.000000, 0.000000)">
                            <g id="money-bill-transfer" transform="translate(0.000000, 2.000000)">
                                <path
                                  d="M17.4491494,1.97283487 L16.7269215,1.28093436 C16.4361545,0.987978747 16.4361545,0.512746584 16.7269215,0.219790967 C17.0208151,-0.0732584447 17.4960473,-0.0732584447 17.7618021,0.219759702 L19.7627796,2.22045584 C19.9316121,2.36114958 20.0097753,2.5521804 20.0097753,2.75102754 C20.0097753,2.95018734 19.9316121,3.14215612 19.7627796,3.2547111 L17.7618021,5.25568863 C17.4960473,5.57459442 17.0208151,5.57459442 16.7269215,5.25568863 C16.4361545,4.9899338 16.4361545,4.51470164 16.7269215,4.22080807 L17.4491494,3.47356802 L12.0058652,3.47356802 C11.590037,3.47356802 11.2554986,3.16404181 11.2554986,2.75102754 C11.2554986,2.33676266 11.590037,2.00066097 12.0058652,2.00066097 L17.4491494,1.97283487 Z M7.97577137,12.4779669 C8.41973826,12.4779669 8.72613794,12.8406441 8.72613794,13.2283335 C8.72613794,13.6691738 8.41973826,13.9787 7.97577137,13.9787 L2.56218919,14.0068388 L3.25471501,14.7259401 C3.5736208,15.0198337 3.5736208,15.4950658 3.25471501,15.7608207 C2.98896018,16.0797264 2.51372802,16.0797264 2.2207724,15.7608207 L0.21976361,13.7598431 C0.0790386124,13.6472881 0,13.45657 0,13.2283335 C0,13.0563745 0.0790698776,12.8656563 0.219794875,12.7249626 L2.2207724,10.723985 C2.51372802,10.433218 2.98896018,10.433218 3.25471501,10.723985 C3.5736208,11.0178786 3.5736208,11.4931108 3.25471501,11.7588656 L2.56187654,12.5061056 L7.97577137,12.4779669 Z"
                                  id="Shape"></path>
                                <path
                                  d="M10.3800709,2.75102754 C10.3800709,3.64865355 11.1085518,4.34899569 12.0058652,4.34899569 L15.0417233,4.34899569 C15.1480252,4.92427673 15.473184,5.39325584 15.9265305,5.68714941 C15.9796815,5.76218607 16.042212,5.8340962 16.1078691,5.9028798 C16.7425542,6.53756486 17.7743082,6.53756486 18.4089933,5.9028798 L19.0092865,5.29946001 L19.0092865,12.0058613 C19.0092865,13.1095254 18.1119732,14.0068388 17.008309,14.0068388 L9.44523924,14.0068388 C9.56404728,13.7817288 9.60156561,13.5284801 9.60156561,13.2283335 C9.60156561,12.3591589 8.90122347,11.6025392 7.97577137,11.6025392 L4.96805202,11.6025392 C4.86175009,11.0835357 4.53659124,10.6145566 4.08324477,10.320663 C4.0300938,10.2456263 3.96756326,10.1737162 3.90190618,10.1049326 C3.26722112,9.47024755 2.23671769,9.47024755 1.60171998,10.1049326 L1.00048876,10.7083524 L1.00048876,4.00195115 C1.00048876,2.89672372 1.89623886,2.00097362 3.00146629,2.00097362 L10.564536,2.00097362 C10.445728,2.22545829 10.3800709,2.48058292 10.3800709,2.75102754 L10.3800709,2.75102754 Z M3.00146629,3.9738124 L3.00146629,5.97478993 C4.10513046,5.97478993 5.00244382,5.10561532 5.00244382,3.9738124 L3.00146629,3.9738124 Z M17.008309,9.97674499 C15.9046448,9.97674499 15.0073315,10.9021971 15.0073315,12.0058613 L17.008309,12.0058613 L17.008309,9.97674499 Z M10.0048876,4.97430117 C8.31968938,4.97430117 7.00342135,6.31870794 7.00342135,7.97576746 C7.00342135,9.66096572 8.31968938,11.0053725 10.0048876,11.0053725 C11.6619472,11.0053725 13.0063539,9.66096572 13.0063539,7.97576746 C13.0063539,6.31870794 11.6619472,4.97430117 10.0048876,4.97430117 Z"
                                  id="Shape" opacity="0.4"></path>
                            </g>
                        </g>
                    </g>
                </g>
            </g>
        </g>
    </g>
</svg>
