<?xml version="1.0" encoding="UTF-8"?>
<svg viewBox="0 0 12 16" version="1.1" xmlns="http://www.w3.org/2000/svg">
    <title>file-contract</title>
    <g id="Mobile" stroke="none" stroke-width="1" fill="none" fill-rule="evenodd">
        <g id="1-2-Lockspread-Theming" transform="translate(-18.000000, -569.000000)" fill="#FFFFFF"
           fill-rule="nonzero">
            <g id="Group-13" transform="translate(-0.000000, 132.000000)">
                <g id="Group-11" transform="translate(0.000000, 390.500000)">
                    <g id="Group-7-Copy" transform="translate(18.000000, 44.500000)">
                        <g id="file-contract" transform="translate(0.000000, 2.000000)">
                            <path
                              d="M8,0 L8,4 L12,4 L8,0 Z M9.5,12 L8.0234375,12 C7.89453125,12 7.76953125,11.921875 7.7071875,11.796875 C7.3359375,11.050625 6.261875,10.8475 5.6446875,11.355625 L5.2109375,10.0546875 C5.109375,9.746875 4.825,9.540625 4.5,9.540625 C4.175,9.540625 3.890625,9.74765625 3.7890625,10.05625 L3.21875,11.7625 C3.171875,11.903125 3.0390625,12 2.886875,12 L2.5,12 C2.2228125,12 2,12.221875 2,12.5 C2,12.778125 2.2228125,13 2.5,13 L2.886875,13 C3.46875,13 3.9846875,12.62875 4.168125,12.078125 L4.5,11.08125 L5.028125,12.65625 C5.090625,12.8515625 5.2625,12.984375 5.465625,13 L5.5,13 C5.68746875,13 5.863125,12.8945312 5.9453125,12.7226562 L6.1875,12.2420313 C6.27346875,12.0701563 6.43359375,12.050625 6.5,12.050625 C6.56640625,12.050625 6.7265625,12.0701563 6.81625,12.25375 C7.046875,12.715625 7.5125,13 8.025,13 L9.5,13 C9.77734375,13 10,12.7773438 10,12.5 C10,12.2226562 9.778125,12 9.5,12 Z"
                              id="Shape"></path>
                            <path
                              d="M8,0 L1.5,0 C0.6715625,0 0,0.6715625 0,1.5 L0,14.5 C0,15.328125 0.6715625,16 1.5,16 L10.5,16 C11.3284375,16 12,15.3284375 12,14.5 L12,4 L8,4 L8,0 Z M2,2.25 C2,2.1134375 2.1134375,2 2.25,2 L4.75,2 C4.8875,2 5,2.1134375 5,2.25 L5,2.75 C5,2.886875 4.8875,3 4.75,3 L2.25,3 C2.1134375,3 2,2.886875 2,2.75 L2,2.25 Z M2,4.25 C2,4.1125 2.1134375,4 2.25,4 L4.75,4 C4.8875,4 5,4.1125 5,4.25 L5,4.75 C5,4.8875 4.8875,5 4.75,5 L2.25,5 C2.1134375,5 2,4.8875 2,4.75 L2,4.25 Z M7.70625,11.796875 C7.76875,11.921875 7.89375,12 8.0225,12 L9.5,12 C9.77734375,12 10,12.2226562 10,12.5 C10,12.7773438 9.778125,13 9.5,13 L8.0234375,13 C7.5115625,13 7.046875,12.7148438 6.81625,12.25375 C6.72640625,12.0701563 6.56625,12.050625 6.5,12.050625 C6.43375,12.050625 6.2734375,12.0701563 6.1875,12.2420313 L5.9453125,12.7226562 C5.8625,12.89375 5.659375,13 5.5,13 L5.465625,13 C5.2625,12.984375 5.090625,12.8515625 5.028125,12.65625 L4.5,11.08125 L4.16875,12.078125 C3.984375,12.628125 3.46875,13 2.886875,13 L2.5,13 C2.2228125,13 2,12.778125 2,12.5 C2,12.221875 2.2228125,12 2.5,12 L2.886875,12 C3.03921875,12 3.17203125,11.9023438 3.21875,11.7617188 L3.7890625,10.0545313 C3.890625,9.746875 4.175,9.540625 4.5,9.540625 C4.825,9.540625 5.109375,9.74765625 5.2109375,10.05625 L5.6446875,11.3571875 C6.2625,10.846875 7.3375,11.05 7.70625,11.796875 Z"
                              id="Shape" opacity="0.4"></path>
                        </g>
                    </g>
                </g>
            </g>
        </g>
    </g>
</svg>
