<?xml version="1.0" encoding="utf-8"?>
<!-- Svg Vector Icons : http://www.onlinewebfonts.com/icon -->
<!DOCTYPE svg PUBLIC "-//W3C//DTD SVG 1.1//EN" "http://www.w3.org/Graphics/SVG/1.1/DTD/svg11.dtd">
<svg version="1.1" xmlns="http://www.w3.org/2000/svg" xmlns:xlink="http://www.w3.org/1999/xlink" x="0px" y="0px"
     viewBox="0 0 256 256" enable-background="new 0 0 256 256" xml:space="preserve">
<metadata> Svg Vector Icons : http://www.onlinewebfonts.com/icon </metadata>
  <g><g><g><path fill="gray" d="M140.4,11.6c-14.6,2.6-26,6.5-33.6,11.8c-1.4,1-3,2.2-3.5,2.8c-0.5,0.6-2.6,2.4-4.7,4.2c-10.6,8.9-15.9,22-15.9,39.7c0,2.9,0.3,7.8,0.7,10.8c0.6,4.4,0.6,5.4,0.1,5.6c-0.3,0.1-1.6,1.2-2.7,2.3c-1.6,1.7-2.3,2.9-2.9,4.9c-1.6,5.6-0.7,13.9,2.2,22.2c2,5.6,3.6,8.3,5.5,9.2c1.4,0.6,1.7,0.6,3,0c1.8-0.9,1.8-0.8,3.5,5c2,7.2,2.7,12.4,2.8,20.5c0,6.3-0.1,8-0.8,9.7c-1.1,2.8-2.3,3.8-4.2,3.8c-0.9,0-1.8,0.2-2,0.5c-0.8,1-1.5,4.7-1.8,9.6l-0.3,4.9l-11.1,5c-31,14-56.9,26.5-62,29.9l-2.5,1.7l-0.1,14.9L10,245.5h118h118v-14.7v-14.8l-1.5-1.2c-2.6-1.9-12.5-7.1-25-13.1c-10.8-5.2-45.9-21.3-48.5-22.3c-1-0.4-1.1-0.7-1.1-3.7c0-3.9-0.7-8.9-1.5-10.5c-0.5-0.9-0.9-1.2-2.3-1.2c-2.2,0-3-0.8-4.2-3.4c-2.4-5.5-0.6-25.7,3.1-34.8l0.7-1.6l1.4,0.7c3.2,1.6,5.6-1.1,8.5-9.2c2.4-6.6,3.1-11.3,2.9-17c-0.3-5.9-1.2-8.3-4.6-11.2l-2.3-2l0.6-3.4c0.4-2.2,0.6-6.8,0.6-12.9c0-8.5-0.1-10-1.2-14.6c-3-12.4-8.6-21-17.9-27.1c-2.1-1.4-4.4-3.1-5.1-3.9c-3-3.2-2.9-7.7,0.4-12l1.2-1.5l-1.8,0C147.5,10.5,143.9,11,140.4,11.6z"/></g></g></g>
</svg>
