<?xml version="1.0" encoding="UTF-8"?>
<svg width="58px" height="58px" viewBox="0 0 58 58" version="1.1" xmlns="http://www.w3.org/2000/svg" xmlns:xlink="http://www.w3.org/1999/xlink">
    <title>Group 2</title>
    <g id="Mobile" stroke="none" stroke-width="1" fill="none" fill-rule="evenodd">
        <g id="1-7-Lockspread-Theming" transform="translate(-28.000000, -127.000000)" fill="#FFFFFF">
            <g id="Group-6-Copy-4" transform="translate(13.000000, 111.000000)">
                <g id="Group-2" transform="translate(15.000000, 16.000000)">
                    <path d="M14.1526463,3.35050289e-16 L43.8473537,5.7178385e-16 C48.7685371,-3.32222883e-16 50.5530772,0.512397374 52.3521883,1.47457252 C54.1512994,2.43674768 55.5632523,3.84870061 56.5254275,5.64781172 C57.4876026,7.44692283 58,9.23146286 58,14.1526463 L58,43.8473537 C58,48.7685371 57.4876026,50.5530772 56.5254275,52.3521883 C55.5632523,54.1512994 54.1512994,55.5632523 52.3521883,56.5254275 C50.5530772,57.4876026 48.7685371,58 43.8473537,58 L14.1526463,58 C9.23146286,58 7.44692283,57.4876026 5.64781172,56.5254275 C3.84870061,55.5632523 2.43674768,54.1512994 1.47457252,52.3521883 C0.512397374,50.5530772 -3.05414828e-16,48.7685371 5.25644906e-16,43.8473537 L3.81189233e-16,14.1526463 C-2.21481922e-16,9.23146286 0.512397374,7.44692283 1.47457252,5.64781172 C2.43674768,3.84870061 3.84870061,2.43674768 5.64781172,1.47457252 C7.44692283,0.512397374 9.23146286,-1.94673867e-16 14.1526463,3.35050289e-16 Z" id="card" opacity="0.100000001"></path>
                    <g id="gift" transform="translate(10.311111, 10.311111)" fill-rule="nonzero">
                        <path d="M20.4482726,3.24500434 C21.6309288,1.23448872 23.7918316,0 26.1206424,0 L26.28125,0 C29.8292188,0 32.7055556,2.87633681 32.7055556,6.42430556 C32.7055556,9.97227431 29.8292188,12.8486111 26.28125,12.8486111 L21.025,12.8486111 L21.025,18.6888889 L16.3527778,18.6888889 L16.3527778,12.8486111 L11.0965278,12.8486111 C7.54855903,12.8486111 4.67222222,9.97227431 4.67222222,6.42430556 C4.67222222,2.87633681 7.54855903,0 11.0965278,0 L11.2571354,0 C13.5859462,0 15.746849,1.23448872 16.9295052,3.24500434 L18.6888889,6.23887674 L20.4482726,3.24500434 Z M13.9071615,5.02117882 C13.3523351,4.08162413 12.3448872,3.50416667 11.2571354,3.50416667 L11.0965278,3.50416667 C9.48315104,3.50416667 8.17638889,4.81165885 8.17638889,6.42430556 C8.17638889,8.03768229 9.48315104,9.34444444 11.0965278,9.34444444 L16.4476823,9.34444444 L13.9071615,5.02117882 Z M20.9300955,9.34444444 L26.28125,9.34444444 C27.8946267,9.34444444 29.2013889,8.03768229 29.2013889,6.42430556 C29.2013889,4.81165885 27.8946267,3.50416667 26.28125,3.50416667 L26.1206424,3.50416667 C25.0328906,3.50416667 24.0254427,4.08162413 23.4706163,5.02117882 L20.9300955,9.34444444 Z M16.3527778,37.3777778 L16.3527778,21.025 L21.025,21.025 L21.025,37.3777778 L16.3527778,37.3777778 Z" id="Shape"></path>
                        <path d="M11.0965278,12.8486111 L16.3527778,12.8486111 L16.3527778,18.6888889 L2.33611111,18.6888889 C1.04613976,18.6888889 0,17.6449392 0,16.3527778 L0,11.6805556 C0,10.3883941 1.04613976,9.34444444 2.33611111,9.34444444 L5.37305556,9.34444444 C6.43598611,11.4250434 8.59980903,12.8486111 11.0965278,12.8486111 Z M35.0416667,18.6888889 L21.025,18.6888889 L21.025,12.8486111 L26.28125,12.8486111 C28.7779688,12.8486111 30.9388715,11.4250434 32.0047222,9.34444444 L35.0416667,9.34444444 C36.3338281,9.34444444 37.3777778,10.3883941 37.3777778,11.6805556 L37.3777778,16.3527778 C37.3777778,17.6449392 36.3338281,18.6888889 35.0416667,18.6888889 Z M2.33611111,21.025 L16.3527778,21.025 L16.3527778,37.3777778 L5.84027778,37.3777778 C3.90495573,37.3777778 2.33611111,35.8082031 2.33611111,33.8736111 L2.33611111,21.025 Z M21.025,37.3777778 L21.025,21.025 L35.0416667,21.025 L35.0416667,33.8736111 C35.0416667,35.8082031 33.472092,37.3777778 31.5375,37.3777778 L21.025,37.3777778 Z" id="Shape" opacity="0.4"></path>
                    </g>
                </g>
            </g>
        </g>
    </g>
</svg>