<svg width="164" height="52" viewBox="0 0 164 52" fill="none" xmlns="http://www.w3.org/2000/svg">
  <rect opacity="0.66" x="0.75" y="0.75" width="162.5" height="50.5" rx="9.25" stroke="#5E6673" stroke-width="1.5"/>
  <path fill-rule="evenodd" clip-rule="evenodd"
        d="M36.1101 10.4297C36.3322 12.3532 35.5313 14.2467 34.3588 15.6405C33.1363 17.0114 31.178 18.0593 29.2726 17.9244C29.0232 16.0755 29.9888 14.1074 31.0692 12.9074C32.2916 11.5436 34.4132 10.5 36.1101 10.4297ZM42.2024 20.7595C41.9775 20.8876 38.467 22.8866 38.5059 26.9533C38.5497 31.8771 43.0391 33.5035 43.0919 33.5207C43.0663 33.6356 42.3893 35.8692 40.7075 38.1373C39.3022 40.134 37.8274 42.0863 35.4899 42.1208C34.3774 42.1454 33.6263 41.8415 32.8435 41.5248C32.0273 41.1945 31.1767 40.8504 29.8461 40.8504C28.4353 40.8504 27.5469 41.2058 26.6902 41.5485C25.9494 41.8449 25.2324 42.1317 24.222 42.171C21.9947 42.25 20.2917 40.0393 18.8351 38.0612C15.9248 34.0217 13.6582 26.6749 16.6969 21.6765C18.1702 19.2247 20.8553 17.647 23.7248 17.604C24.9886 17.5796 26.2009 18.0424 27.2637 18.448C28.0765 18.7583 28.8019 19.0352 29.3958 19.0352C29.9181 19.0352 30.6234 18.7693 31.4454 18.4594C32.7398 17.9714 34.3235 17.3744 35.9371 17.5351C37.0402 17.5652 40.1832 17.9485 42.208 20.7563L42.2024 20.7595Z"
        fill="black"/>
  <path
    d="M55.3262 12.3477V21.6081H58.3514C60.6009 21.6081 62.0489 20.0691 62.0489 16.9779C62.0489 13.8867 60.6009 12.3477 58.3514 12.3477H55.3262ZM58.3514 20.6263H56.4122V13.3295H58.3514C59.8382 13.3295 60.8854 14.3908 60.8854 16.2217V17.7341C60.8854 19.565 59.8382 20.6263 58.3514 20.6263Z"
    fill="#363636"/>
  <path
    d="M66.4174 21.7673C68.2015 21.7673 69.4297 20.361 69.4297 18.1852C69.4297 16.0094 68.2015 14.6031 66.4174 14.6031C64.6333 14.6031 63.4051 16.0094 63.4051 18.1852C63.4051 20.361 64.6333 21.7673 66.4174 21.7673ZM66.4174 20.8253C65.3055 20.8253 64.5169 20.1222 64.5169 18.6761V17.6943C64.5169 16.2482 65.3055 15.5451 66.4174 15.5451C67.5292 15.5451 68.3178 16.2482 68.3178 17.6943V18.6761C68.3178 20.1222 67.5292 20.8253 66.4174 20.8253Z"
    fill="#363636"/>
  <path
    d="M70.3694 14.7623L72.1535 21.6081H73.4076L74.3384 18.3179L74.9072 16.235H74.9331L75.5149 18.3179L76.4457 21.6081H77.7256L79.4968 14.7623H78.5272L77.8032 17.7209L77.118 20.7192H77.0921L76.2647 17.7209L75.3985 14.7623H74.4806L73.6403 17.7209L72.8258 20.7192H72.7999L72.0889 17.7209L71.3778 14.7623H70.3694Z"
    fill="#363636"/>
  <path
    d="M80.991 21.6081H82.0253V16.8585C82.0253 15.9829 82.8269 15.5583 83.6543 15.5583C84.6498 15.5583 85.1669 16.1819 85.1669 17.4024V21.6081H86.2012V17.2167C86.2012 15.5583 85.335 14.6031 83.9646 14.6031C82.9691 14.6031 82.4002 15.1073 82.077 15.8767H82.0253V14.7623H80.991V21.6081Z"
    fill="#363636"/>
  <path
    d="M89.4379 21.6081H90.3558V20.6794H89.3732V11.7905H88.339V20.5069C88.339 21.1437 88.7268 21.6081 89.4379 21.6081Z"
    fill="#363636"/>
  <path
    d="M94.3825 21.7673C96.1666 21.7673 97.3948 20.361 97.3948 18.1852C97.3948 16.0094 96.1666 14.6031 94.3825 14.6031C92.5984 14.6031 91.3702 16.0094 91.3702 18.1852C91.3702 20.361 92.5984 21.7673 94.3825 21.7673ZM94.3825 20.8253C93.2706 20.8253 92.482 20.1222 92.482 18.6761V17.6943C92.482 16.2482 93.2706 15.5451 94.3825 15.5451C95.4943 15.5451 96.2829 16.2482 96.2829 17.6943V18.6761C96.2829 20.1222 95.4943 20.8253 94.3825 20.8253Z"
    fill="#363636"/>
  <path
    d="M103.944 21.6081H104.526V20.6794H103.763V16.9116C103.763 15.4655 102.806 14.6031 101.203 14.6031C100.001 14.6031 99.1992 15.2134 98.8372 15.9431L99.4577 16.5401C99.8197 15.9165 100.35 15.5185 101.151 15.5185C102.211 15.5185 102.729 16.0492 102.729 17.0177V17.6943H101.41C99.4707 17.6943 98.5657 18.4107 98.5657 19.6976C98.5657 20.9713 99.3931 21.7673 100.802 21.7673C101.733 21.7673 102.444 21.3295 102.729 20.4936H102.793C102.871 21.1305 103.181 21.6081 103.944 21.6081ZM100.97 20.8651C100.169 20.8651 99.6517 20.4804 99.6517 19.8038V19.5252C99.6517 18.8618 100.182 18.4903 101.358 18.4903H102.729V19.618C102.729 20.3212 101.992 20.8651 100.97 20.8651Z"
    fill="#363636"/>
  <path
    d="M110.268 20.4936V21.6081H111.302V11.7905H110.268V15.8767H110.216C109.867 15.0144 109.182 14.6031 108.264 14.6031C106.597 14.6031 105.549 15.9962 105.549 18.1852C105.549 20.3742 106.597 21.7673 108.264 21.7673C109.182 21.7673 109.816 21.3427 110.216 20.4936H110.268ZM108.549 20.8121C107.385 20.8121 106.661 19.9895 106.661 18.7689V17.6015C106.661 16.3809 107.385 15.5583 108.549 15.5583C109.492 15.5583 110.268 16.1156 110.268 16.8718V19.419C110.268 20.3079 109.492 20.8121 108.549 20.8121Z"
    fill="#363636"/>
  <path
    d="M119.078 21.7673C120.862 21.7673 122.09 20.361 122.09 18.1852C122.09 16.0094 120.862 14.6031 119.078 14.6031C117.293 14.6031 116.065 16.0094 116.065 18.1852C116.065 20.361 117.293 21.7673 119.078 21.7673ZM119.078 20.8253C117.966 20.8253 117.177 20.1222 117.177 18.6761V17.6943C117.177 16.2482 117.966 15.5451 119.078 15.5451C120.189 15.5451 120.978 16.2482 120.978 17.6943V18.6761C120.978 20.1222 120.189 20.8253 119.078 20.8253Z"
    fill="#363636"/>
  <path
    d="M123.791 21.6081H124.825V16.8585C124.825 15.9829 125.627 15.5583 126.454 15.5583C127.45 15.5583 127.967 16.1819 127.967 17.4024V21.6081H129.001V17.2167C129.001 15.5583 128.135 14.6031 126.764 14.6031C125.769 14.6031 125.2 15.1073 124.877 15.8767H124.825V14.7623H123.791V21.6081Z"
    fill="#363636"/>
  <path
    d="M135.668 21.6081H136.961V20.6794H135.603V15.691H137.064V14.7623H135.603V12.8651H134.673V14.1388C134.673 14.6031 134.53 14.7623 134.091 14.7623H133.47V15.691H134.569V20.4804C134.569 21.1437 134.957 21.6081 135.668 21.6081Z"
    fill="#363636"/>
  <path
    d="M138.727 11.7905V21.6081H139.761V16.8585C139.761 15.9829 140.562 15.5583 141.39 15.5583C142.385 15.5583 142.903 16.1819 142.903 17.4024V21.6081H143.937V17.2167C143.937 15.5583 143.071 14.6031 141.7 14.6031C140.705 14.6031 140.136 15.1073 139.813 15.8767H139.761V11.7905H138.727Z"
    fill="#363636"/>
  <path
    d="M148.583 21.7673C149.837 21.7673 150.793 21.1305 151.22 20.2018L150.483 19.6578C150.134 20.414 149.488 20.8386 148.647 20.8386C147.406 20.8386 146.669 19.9497 146.669 18.7689V18.4505H151.466V17.9464C151.466 16.0094 150.367 14.6031 148.583 14.6031C146.773 14.6031 145.583 16.0094 145.583 18.1852C145.583 20.361 146.773 21.7673 148.583 21.7673ZM148.583 15.492C149.643 15.492 150.354 16.3013 150.354 17.5086V17.6545H146.669V17.5616C146.669 16.3676 147.458 15.492 148.583 15.492Z"
    fill="#363636"/>
  <path
    d="M63.4422 39.0398H65.5719L61.2764 26.5175H58.7135L54.418 39.0398H56.4935L57.5945 35.6491H62.3052L63.4422 39.0398ZM59.995 28.3833L61.7998 33.9089H58.0818L59.9047 28.3833H59.995Z"
    fill="#363636"/>
  <path
    d="M67.3788 29.7109V42.6278H69.3461V37.4969H69.4363C69.8334 38.5913 70.826 39.2551 72.0714 39.2551C74.4357 39.2551 75.8074 37.4431 75.8074 34.3753C75.8074 31.3076 74.4357 29.4956 72.0714 29.4956C70.826 29.4956 69.8334 30.1414 69.4363 31.2537H69.3461V29.7109H67.3788ZM71.4758 37.5687C70.2846 37.5687 69.3461 36.9228 69.3461 35.972V32.7787C69.3461 31.8278 70.2846 31.182 71.4758 31.182C72.8294 31.182 73.7318 32.1328 73.7318 33.568V35.1826C73.7318 36.6179 72.8294 37.5687 71.4758 37.5687Z"
    fill="#363636"/>
  <path
    d="M78.0598 29.7109V42.6278H80.0271V37.4969H80.1173C80.5144 38.5913 81.5071 39.2551 82.7524 39.2551C85.1168 39.2551 86.4885 37.4431 86.4885 34.3753C86.4885 31.3076 85.1168 29.4956 82.7524 29.4956C81.5071 29.4956 80.5144 30.1414 80.1173 31.2537H80.0271V29.7109H78.0598ZM82.1568 37.5687C80.9656 37.5687 80.0271 36.9228 80.0271 35.972V32.7787C80.0271 31.8278 80.9656 31.182 82.1568 31.182C83.5105 31.182 84.4129 32.1328 84.4129 33.568V35.1826C84.4129 36.6179 83.5105 37.5687 82.1568 37.5687Z"
    fill="#363636"/>
  <path
    d="M96.9228 39.2551C99.8105 39.2551 101.489 37.6943 101.489 35.362C101.489 33.3707 100.352 32.2584 97.8432 31.774L96.7242 31.5408C95.3706 31.2717 94.7208 30.8232 94.7208 29.7826C94.7208 28.6883 95.5511 28.0963 96.9949 28.0963C98.3847 28.0963 99.2871 28.6345 99.9369 29.4777L101.363 28.2218C100.388 26.984 98.9983 26.3022 97.1032 26.3022C94.4321 26.3022 92.6994 27.6657 92.6994 29.8903C92.6994 31.8816 93.9447 33.0119 96.3813 33.4604L97.5003 33.6577C98.9622 33.9448 99.4676 34.5009 99.4676 35.4697C99.4676 36.6717 98.6374 37.4611 97.031 37.4611C95.6594 37.4611 94.6125 36.9049 93.7282 35.8285L92.3204 37.1381C93.3672 38.4298 94.8111 39.2551 96.9228 39.2551Z"
    fill="#363636"/>
  <path
    d="M106.357 39.0398H108.071V37.4431H106.248V31.3076H108.216V29.7109H106.248V27.1634H104.48V28.7959C104.48 29.4418 104.263 29.7109 103.613 29.7109H102.819V31.3076H104.281V37.0125C104.281 38.2863 105.003 39.0398 106.357 39.0398Z"
    fill="#363636"/>
  <path
    d="M113.961 39.2551C116.578 39.2551 118.275 37.3534 118.275 34.3753C118.275 31.3973 116.578 29.4956 113.961 29.4956C111.344 29.4956 109.648 31.3973 109.648 34.3753C109.648 37.3534 111.344 39.2551 113.961 39.2551ZM113.961 37.6405C112.626 37.6405 111.723 36.8152 111.723 35.1647V33.586C111.723 31.9355 112.626 31.1102 113.961 31.1102C115.297 31.1102 116.199 31.9355 116.199 33.586V35.1647C116.199 36.8152 115.297 37.6405 113.961 37.6405Z"
    fill="#363636"/>
  <path
    d="M120.467 39.0398H122.434V33.0836C122.434 32.1149 123.3 31.5946 124.853 31.5946H125.629V29.7109H125.105C123.607 29.7109 122.795 30.5541 122.524 31.5049H122.434V29.7109H120.467V39.0398Z"
    fill="#363636"/>
  <path
    d="M130.97 39.2551C132.72 39.2551 134.092 38.5016 134.796 37.3714L133.641 36.2411C133.099 37.1022 132.323 37.6405 131.168 37.6405C129.58 37.6405 128.696 36.6179 128.696 35.1826V34.8777H135.139V34.1421C135.139 31.5587 133.731 29.4956 130.97 29.4956C128.299 29.4956 126.656 31.3973 126.656 34.3753C126.656 37.3534 128.299 39.2551 130.97 39.2551ZM130.97 31.0205C132.269 31.0205 133.063 31.9714 133.063 33.4066V33.586H128.696V33.4604C128.696 32.0252 129.616 31.0205 130.97 31.0205Z"
    fill="#363636"/>
</svg>
