<?xml version="1.0" standalone="no"?>
<!DOCTYPE svg PUBLIC "-//W3C//DTD SVG 20010904//EN"
  "http://www.w3.org/TR/2001/REC-SVG-20010904/DTD/svg10.dtd">
<svg version="1.0" xmlns="http://www.w3.org/2000/svg"
     width="1400.000000pt" height="1800.000000pt" viewBox="0 0 1400.000000 1800.000000"
     preserveAspectRatio="xMidYMid meet">


  <g transform="translate(0.000000,1800.000000) scale(0.100000,-0.100000)"
     fill="white" fill-rule="inherit">
    <path d="M3780 16773 c-146 -16 -305 -64 -440 -135 -329 -170 -555 -466 -643
-843 -21 -89 -21 -108 -24 -1422 l-4 -1333 671 0 670 0 2 1198 3 1197 2985 0
2985 0 3 -1202 2 -1203 670 0 671 0 -4 1338 c-3 1319 -3 1338 -24 1427 -88
377 -314 673 -643 843 -104 54 -181 83 -310 115 l-85 21 -3225 2 c-1774 0
-3241 -1 -3260 -3z -245 c209 -54 362 -138 501 -277 129 -129 215 -281
267 -469 l27 -97 3 -1212 3 -1213 -441 0 -440 0 0 1148 c0 1280 5 1190 -69
1239 l-34 23 -3117 0 -3117 0 -34 -23 c-74 -49 -69 40 -69 -1235 l0 -1142
-437 2 -438 3 0 1205 0 1205 27 97 c82 299 266 527 533 660 105 53 192 78 345
102 14 2 1465 3 3225 2 2944 -2 3205 -3 3265 -18z"/>

    <path d="M2513 12740 c-531 -56 -981 -423 -1141 -930 -61 -196 -57 70 -57
-3635 0 -3250 1 -3404 18 -3485 58 -268 180 -494 372 -685 191 -191 395 -302
685 -371 70 -17 167 -18 1370 -21 l1295 -3 252 612 251 613 -756 6 c-798 6
-798 6 -930 53 -171 61 -303 176 -376 329 -56 114 -76 212 -76 360 0 216 29
323 204 752 l114 280 671 3 c369 1 671 0 671 -2 0 -3 -21 -56 -46 -118 -41
-98 -47 -123 -48 -188 -1 -134 49 -226 155 -285 l54 -30 420 -3 420 -2 326
802 326 803 -771 5 c-759 5 -772 6 -850 28 -137 38 -221 86 -317 182 -144 142
-200 290 -202 525 -1 254 26 339 343 1110 283 689 376 887 519 1101 287 432
623 722 971 838 211 70 197 69 1088 76 l804 5 195 475 c107 261 225 550 263
643 l68 167 -3106 -1 c-1709 -1 -3140 -5 -3179 -9z -227 c3 -5 -70 -191
-162 -415 l-166 -408 -675 0 c-371 0 -718 -5 -770 -10 -435 -45 -771 -221
-1120 -586 -218 -228 -388 -471 -536 -766 -80 -159 -579 -1371 -619 -1503
-102 -335 -108 -605 -19 -859 91 -261 312 -466 594 -550 136 -41 223 -46 808
-46 309 0 562 -3 562 -6 0 -3 -104 -262 -231 -575 l-232 -569 -307 0 c-287 0
-309 1 -331 19 -41 33 -31 75 75 331 54 129 102 245 107 258 l9 22 -924 0
-923 0 -143 -352 c-228 -560 -245 -624 -245 -918 0 -173 3 -205 23 -279 45
-165 108 -277 226 -400 135 -140 284 -219 506 -268 63 -13 167 -17 668 -20
325 -2 592 -7 592 -10 0 -2 -68 -170 -151 -371 -83 -202 -153 -373 -156 -379
-8 -20 -2282 -18 -2413 2 -478 72 -852 438 -934 914 -15 86 -16 401 -16 3411
0 2873 2 3329 15 3402 87 499 482 874 980 928 91 10 5902 12 5908 3z"/>
    <path d="M9182 12112 c-144 -352 -262 -643 -262 -646 0 -3 305 -6 678 -6 827
0 880 -5 1062 -92 119 -57 230 -168 288 -288 63 -129 76 -191 76 -360 0 -228
-25 -320 -209 -772 l-109 -268 -673 0 c-370 0 -673 2 -673 5 0 2 19 51 42 107
41 98 43 108 43 208 0 98 -2 109 -30 158 -32 59 -66 91 -129 125 -40 22 -48
22 -444 22 l-403 0 -320 -785 c-175 -432 -322 -793 -325 -802 -5 -16 43 -17
748 -20 742 -3 754 -4 833 -26 254 -70 420 -227 495 -467 16 -51 23 -106 27
-200 6 -144 -7 -245 -52 -398 -43 -149 -548 -1386 -637 -1559 -136 -266 -294
-491 -487 -691 -227 -235 -425 -367 -668 -446 -200 -65 -189 -64 -1058 -68
l-791 -4 -239 -582 c-131 -320 -245 -597 -252 -615 l-13 -32 2917 3 c2775 2
2922 3 2993 21 292 70 495 180 685 371 192 191 314 417 372 685 17 81 18 235
18 3485 0 3705 4 3439 -57 3635 -92 291 -281 542 -543 717 -128 86 -293 154
-473 195 -96 22 -108 22 -1133 25 l-1035 4 -262 -639z  381 c277 -68 495
-209 655 -421 72 -96 143 -233 174 -337 54 -175 51 26 51 -3555 0 -3664 5
-3400 -62 -3590 -60 -168 -134 -286 -263 -416 -132 -135 -288 -230 -463 -284
-166 -52 -57 -50 -2939 -50 -1476 0 -2683 3 -2683 7 0 6 278 685 303 740 l10
22 726 4 c786 4 778 4 985 62 392 111 756 394 1082 841 202 277 291 461 618
1269 339 841 351 882 351 1180 -1 152 -4 194 -23 268 -78 311 -298 546 -600
641 -166 52 -221 56 -814 56 -435 0 -548 3 -548 13 0 7 103 264 228 572 l228
560 292 3 c281 2 292 2 312 -18 36 -36 26 -79 -80 -346 -55 -139 -100 -255
-100 -258 0 -3 415 -6 923 -6 l922 0 134 333 c230 568 255 658 255 937 1 202
-17 292 -84 437 -126 270 -342 435 -662 505 -98 21 -131 22 -675 28 l-571 5
163 398 c90 219 166 405 169 413 5 13 117 15 953 11 921 -3 950 -4 1033 -24z"/>
    <path d="M6732 10290 c-29 -10 -74 -34 -100 -53 -98 -70 -116 -105 -334 -637
l-202 -495 0 -85 c0 -106 25 -170 93 -233 87 -82 90 -82 550 -82 l403 0 324
795 c178 437 324 798 324 803 0 4 -226 7 -502 7 -469 -1 -507 -2 -556 -20z
-219 c-1 -4 -106 -263 -233 -574 l-230 -567 -297 0 c-200 0 -305 4 -322
11 -31 14 -50 60 -41 96 17 70 379 942 404 973 54 69 60 70 409 70 173 0 312
-4 310 -9z"/>
    <path d="M7008 6798 l-327 -803 482 -3 c544 -3 543 -3 643 71 33 24 76 68 97
99 25 36 108 226 237 544 l199 489 1 81 c0 48 -6 99 -16 127 -22 64 -91 139
-156 168 -53 24 -57 24 -443 27 l-390 3 -327 -803z 561 c65 -35 59 -57
-150 -572 -103 -253 -196 -474 -208 -491 -11 -17 -36 -41 -54 -53 -33 -23 -39
-23 -332 -23 -165 0 -299 4 -299 8 0 6 367 914 457 1130 7 17 554 18 586 1z"/>
    <path d="M1873 3060 c-18 -10 -39 -29 -47 -42 -8 -13 -137 -311 -287 -662
-248 -583 -271 -642 -265 -679 8 -48 38 -92 76 -112 44 -23 1011 -22 1054 0
26 14 34 14 77 0 40 -14 98 -16 376 -13 l328 3 66 32 c36 18 87 53 113 77 l48
44 62 -63 c94 -96 99 -97 518 -93 l343 3 69 34 68 33 14 -21 c33 -46 60 -51
276 -51 184 0 206 2 235 20 18 11 38 28 45 39 12 20 14 19 51 -17 l38 -37 232
0 c224 0 233 1 263 22 l32 23 48 -23 c48 -22 55 -22 464 -22 l415 0 63 27 c34
15 62 25 62 23 0 -2 -18 -46 -41 -97 -62 -142 -56 -202 25 -262 25 -19 44 -21
226 -24 268 -4 272 -2 343 168 19 47 44 106 55 131 l20 46 54 -8 c117 -18 275
-27 324 -19 49 8 102 29 151 60 20 13 25 12 53 -15 l31 -30 219 0 220 0 34 35
c25 25 56 87 115 225 54 129 84 189 93 186 7 -3 61 -7 119 -9 l106 -4 -14 -51
c-18 -66 -12 -159 14 -219 26 -57 83 -115 142 -142 44 -20 63 -21 446 -24
l401 -3 34 23 c21 14 45 44 60 75 14 29 27 52 30 52 3 0 17 -19 32 -43 60 -94
168 -133 317 -115 46 5 113 16 148 23 55 12 68 12 93 -1 24 -11 71 -14 234
-11 202 3 205 3 231 28 15 14 36 42 47 63 l19 39 23 -31 c71 -95 177 -129 345
-109 53 6 217 10 366 9 254 -2 272 -1 302 18 18 11 39 31 47 43 9 13 138 311
287 662 249 585 271 641 265 678 -4 23 -16 54 -27 70 -39 54 -59 58 -281 58
-271 0 -251 12 -348 -215 l-56 -130 -199 -6 c-213 -6 -250 -13 -327 -64 -21
-14 -40 -25 -44 -25 -4 0 -24 16 -45 35 l-39 35 -208 0 c-114 0 -213 -4 -220
-8 -7 -5 -58 2 -115 15 -227 51 -387 20 -515 -100 -48 -46 -55 -50 -64 -34
-24 44 -74 88 -126 114 l-57 28 -307 3 c-341 4 -391 -2 -480 -57 -46 -29 -47
-29 -65 -9 -10 11 -40 32 -68 46 -63 32 -195 41 -295 19 -36 -7 -75 -10 -85
-6 -37 14 -382 10 -418 -5 -38 -16 -72 -51 -86 -89 l-11 -29 -54 50 c-87 79
-106 82 -533 82 l-360 0 -6 60 c-9 84 -41 152 -96 203 -87 81 -91 82 -546 82
-392 0 -401 0 -460 -23 -110 -41 -234 -151 -299 -264 -13 -23 -29 -38 -40 -38
-11 0 -91 -19 -178 -41 -88 -23 -161 -39 -164 -37 -2 3 16 53 41 111 52 121
58 179 25 232 -36 59 -64 65 -287 65 -179 0 -201 -2 -230 -20 -44 -26 -51 -40
-138 -244 -41 -99 -77 -182 -80 -184 -3 -3 -24 13 -48 36 -67 61 -96 64 -497
60 l-345 -3 -75 -36 c-41 -20 -98 -57 -126 -82 l-51 -46 -31 45 c-39 54 -107
99 -173 113 -68 15 -592 14 -661 0 -168 -36 -272 -148 -388 -417 l-67 -157
-133 -3 c-104 -2 -131 0 -127 10 3 7 75 178 161 380 166 391 173 415 136 476
-41 67 -61 72 -295 72 -191 0 -213 -2 -242 -20z m408 -142 c-14 -36 -382 -902
-388 -910 -2 -5 126 -8 285 -8 l290 0 77 183 c121 282 192 370 320 397 36 7
150 10 328 8 262 -3 273 -4 308 -26 20 -12 44 -38 53 -56 32 -69 23 -110 -80
-354 -109 -258 -130 -298 -193 -365 -87 -93 -81 -92 -443 -92 -304 0 -318 1
-344 21 -43 32 -65 67 -71 113 l-6 43 -38 -89 -37 -88 -461 -3 c-254 -1 -461
1 -461 5 0 5 118 286 262 626 l262 617 173 0 173 0 -9 -22z m3169 17 c0 -3
-45 -112 -100 -242 -55 -130 -99 -237 -98 -238 2 -1 140 34 307 77 167 44 305
77 308 75 5 -5 -104 -267 -117 -280 -4 -5 -67 -24 -140 -42 -72 -18 -134 -36
-138 -39 -4 -5 31 -290 65 -518 l6 -38 -177 0 c-97 0 -176 3 -176 8 -1 44 -31
466 -33 469 -17 16 -48 -40 -133 -243 l-99 -234 -162 0 c-90 0 -163 3 -163 7
0 4 118 285 262 625 l263 618 162 0 c90 0 163 -2 163 -5z m1583 -9 c113 -41
138 -140 76 -296 l-34 -85 -172 -3 c-95 -1 -173 0 -173 3 0 3 7 22 15 42 8 19
15 37 15 39 0 2 -99 4 -221 4 l-220 0 -35 -76 c-19 -41 -34 -79 -34 -85 0 -5
104 -9 263 -9 149 0 278 -5 299 -10 78 -22 128 -89 128 -171 0 -45 -75 -245
-133 -353 -47 -89 -117 -160 -195 -198 l-67 -33 -380 0 c-365 0 -381 1 -415
21 -86 50 -102 154 -45 289 l33 80 176 3 175 2 -19 -42 -19 -43 216 -3 c166
-2 220 1 228 10 13 14 65 134 65 148 0 5 -127 10 -282 12 -264 3 -285 4 -318
24 -69 40 -103 122 -82 201 19 70 119 301 151 346 60 87 147 155 236 183 59
19 715 18 768 0z m5545 -3 c-3 -10 -121 -291 -263 -625 l-259 -608 -164 0
c-148 0 -164 2 -158 16 6 14 1 16 -36 10 -125 -20 -269 -36 -327 -36 -76 0
-120 21 -151 72 -39 64 -29 109 71 347 51 119 104 241 119 271 40 79 99 141
172 181 l63 34 233 5 233 5 69 163 c38 89 72 167 75 172 4 6 73 10 167 10 148
0 160 -1 156 -17z m-3510 -343 c32 -14 47 -29 59 -57 24 -58 12 -122 -49 -263
l-54 -125 -162 -3 c-97 -1 -162 1 -162 7 0 5 16 47 35 92 19 46 35 87 35 91 0
10 -56 10 -127 2 -44 -6 -53 -10 -61 -33 -5 -14 -64 -155 -132 -313 l-122
-288 -160 0 c-124 0 -159 3 -155 13 3 6 89 208 191 447 l185 435 156 3 c150 2
155 2 155 -18 0 -16 5 -19 23 -15 206 50 279 55 345 25z m1767 -15 c147 -40
141 -40 148 -16 5 20 11 21 167 21 88 0 159 -3 157 -7 -2 -5 -87 -203 -187
-440 l-184 -433 -159 0 c-148 0 -159 1 -152 18 22 52 22 52 -46 31 -96 -29
-263 -59 -328 -59 -103 0 -166 66 -158 165 6 70 210 545 266 620 102 135 239
164 476 100z m-6165 7 c42 -21 62 -57 55 -97 -3 -16 -24 -76 -48 -132 l-42
-103 -164 0 c-159 0 -163 1 -157 20 3 11 9 29 12 40 6 19 2 20 -128 20 -116 0
-137 -2 -151 -17 -13 -15 -147 -322 -147 -338 0 -3 63 -5 140 -5 l140 0 20 40
20 40 160 0 c88 0 160 -3 160 -7 0 -5 -19 -54 -42 -111 -48 -117 -80 -161
-146 -200 l-47 -27 -337 0 c-326 0 -337 1 -365 21 -43 33 -65 77 -65 134 1 41
20 95 102 288 127 298 168 360 277 416 59 30 106 34 413 35 272 1 309 -1 340
-17z m3389 -7 c56 -33 76 -68 75 -133 0 -49 -14 -89 -93 -277 -51 -121 -107
-246 -124 -278 -43 -83 -99 -142 -163 -173 -53 -26 -60 -27 -162 -21 -83 5
-272 28 -335 40 -4 1 -42 -79 -85 -178 l-77 -180 -164 -3 c-152 -2 -163 -1
-158 15 5 21 494 1168 508 1196 10 17 30 18 377 15 346 -3 369 -4 401 -23z
m2002 -3 c20 -12 44 -38 53 -56 31 -65 21 -117 -53 -291 l-68 -160 -312 -3
-311 -2 -15 -36 c-8 -20 -15 -40 -15 -45 0 -5 130 -10 289 -11 l289 -3 -55
-133 -56 -133 -368 3 c-353 3 -369 4 -395 24 -53 39 -69 70 -68 132 1 48 16
90 97 277 52 122 104 239 115 260 47 93 135 165 231 192 33 9 125 12 326 10
272 -2 281 -3 316 -25z"/>
    <path d="M2938 2303 c-14 -15 -148 -323 -148 -338 0 -8 254 -5 267 3 15 9 153
334 146 345 -2 4 -59 7 -127 7 -104 0 -125 -3 -138 -17z"/>
    <path d="M11718 2308 c-23 -19 -161 -350 -149 -358 10 -6 87 0 222 15 l56 7
68 161 c37 89 70 168 72 175 4 9 -25 12 -124 12 -88 0 -134 -4 -145 -12z"/>
    <path d="M10606 2308 c-26 -42 -147 -340 -143 -352 5 -12 53 -10 218 9 l55 7
71 166 71 167 -81 12 c-133 19 -174 17 -191 -9z"/>
    <path d="M7427 2146 l-75 -174 47 -7 c115 -15 191 -20 209 -14 21 8 168 341
157 359 -4 6 -57 10 -134 10 l-129 0 -75 -174z"/>
    <path d="M9494 2312 c-6 -4 -21 -26 -33 -49 l-21 -43 145 0 144 0 16 30 c8 16
15 38 15 50 0 19 -6 20 -127 20 -71 0 -133 -4 -139 -8z"/>
  </g>
</svg>
