<svg class="svg-icon" style="width: 1em; height: 1em;vertical-align: middle;fill: currentColor;overflow: hidden;"
     viewBox="0 0 1024 1024" version="1.1" xmlns="http://www.w3.org/2000/svg">
  <path
    d="M921 509.1c0-39.5-24-73.4-58.3-87.8-39.6-158.1-182.5-275.2-352.9-275.2-171.3 0-315 118.5-353.6 278-31 15.7-52.2 47.9-52.2 85 0 49 36.9 89.3 84.4 94.7-0.1-0.2-0.2-0.4-0.3-0.7 0-0.1-0.1-0.2-0.1-0.3l1.3 0.7H205c-9.1-29.6-14-61.1-14-93.7 0-176.1 142.8-318.9 318.9-318.9s318.9 142.8 318.9 318.9c0 164.5-124.6 299.9-284.6 317.1-7.5-6.9-18.7-11.3-31.2-11.3-22.7 0-41.1 14.4-41.1 32.2 0 17.8 18.4 32.2 41.1 32.2 10.2 0 19.5-2.9 26.7-7.7 157.6-12.8 286.8-126 323.5-275.6 33.9-14.5 57.8-48.3 57.8-87.6z"
    fill="#fff"/>
  <path
    d="M767.4 511.3c0-141.2-114.5-255.7-255.7-255.7S256 370 256 511.3 370.5 767 511.7 767s255.7-114.5 255.7-255.7z m-471 0c0-118.9 96.4-215.3 215.3-215.3S727 392.4 727 511.3s-96.4 215.3-215.3 215.3-215.3-96.4-215.3-215.3z"
    fill="#fff"/>
  <path
    d="M624.2 582.9C594 596 555.3 603.8 513 603.8c-44.9 0-85.9-8.9-116.7-23.5 3.3 47.8 53.1 85.7 114.1 85.7 59.8 0.1 109-36.5 113.8-83.1z"
    fill="#fff"/>
</svg>
